<mxfile host="app.diagrams.net" modified="2023-05-22T17:46:20.375Z" agent="Mozilla/5.0 (Windows NT 10.0; Win64; x64) AppleWebKit/537.36 (KHTML, like Gecko) Chrome/113.0.0.0 Safari/537.36" etag="FzGFro3aXjt21FIlvwFy" version="21.3.2" type="device">
  <diagram name="Página-1" id="VrtYn4ess4xdo99-X_fA">
    <mxGraphModel dx="778" dy="342" grid="1" gridSize="10" guides="1" tooltips="1" connect="1" arrows="1" fold="1" page="1" pageScale="1" pageWidth="827" pageHeight="1169" math="0" shadow="0">
      <root>
        <mxCell id="0" />
        <mxCell id="1" parent="0" />
        <mxCell id="-gEh20BVdkmrkl_HffnZ-10" style="edgeStyle=orthogonalEdgeStyle;shape=flexArrow;rounded=0;orthogonalLoop=1;jettySize=auto;html=1;entryX=0.5;entryY=1;entryDx=0;entryDy=0;" edge="1" parent="1" source="-gEh20BVdkmrkl_HffnZ-5" target="-gEh20BVdkmrkl_HffnZ-1">
          <mxGeometry relative="1" as="geometry" />
        </mxCell>
        <mxCell id="-gEh20BVdkmrkl_HffnZ-23" style="edgeStyle=orthogonalEdgeStyle;shape=flexArrow;rounded=0;orthogonalLoop=1;jettySize=auto;html=1;entryX=1;entryY=0.25;entryDx=0;entryDy=0;" edge="1" parent="1" source="-gEh20BVdkmrkl_HffnZ-5" target="-gEh20BVdkmrkl_HffnZ-21">
          <mxGeometry relative="1" as="geometry">
            <Array as="points">
              <mxPoint x="500" y="260" />
              <mxPoint x="500" y="33" />
            </Array>
          </mxGeometry>
        </mxCell>
        <mxCell id="-gEh20BVdkmrkl_HffnZ-5" value="&lt;p style=&quot;margin:0px;margin-top:4px;text-align:center;&quot;&gt;&lt;br&gt;«class»&lt;br&gt;&lt;b&gt;PedigreeCreator&lt;/b&gt;&lt;/p&gt;" style="verticalAlign=top;align=left;overflow=fill;fontSize=12;fontFamily=Helvetica;html=1;whiteSpace=wrap;" vertex="1" parent="1">
          <mxGeometry x="310" y="230" width="140" height="60" as="geometry" />
        </mxCell>
        <mxCell id="-gEh20BVdkmrkl_HffnZ-1" value="&lt;p style=&quot;margin:0px;margin-top:4px;text-align:center;&quot;&gt;&lt;br&gt;«class»&lt;br&gt;&lt;b&gt;Pedigree&lt;/b&gt;&lt;/p&gt;" style="verticalAlign=top;align=left;overflow=fill;fontSize=12;fontFamily=Helvetica;html=1;whiteSpace=wrap;" vertex="1" parent="1">
          <mxGeometry x="310" y="140" width="140" height="60" as="geometry" />
        </mxCell>
        <mxCell id="-gEh20BVdkmrkl_HffnZ-6" style="edgeStyle=orthogonalEdgeStyle;shape=link;rounded=0;orthogonalLoop=1;jettySize=auto;html=1;entryX=0.5;entryY=0;entryDx=0;entryDy=0;" edge="1" parent="1" source="-gEh20BVdkmrkl_HffnZ-2" target="-gEh20BVdkmrkl_HffnZ-1">
          <mxGeometry relative="1" as="geometry">
            <Array as="points">
              <mxPoint x="380" y="100" />
            </Array>
          </mxGeometry>
        </mxCell>
        <mxCell id="-gEh20BVdkmrkl_HffnZ-7" style="edgeStyle=orthogonalEdgeStyle;shape=link;rounded=0;orthogonalLoop=1;jettySize=auto;html=1;entryX=0.5;entryY=0;entryDx=0;entryDy=0;" edge="1" parent="1" source="-gEh20BVdkmrkl_HffnZ-2" target="-gEh20BVdkmrkl_HffnZ-3">
          <mxGeometry relative="1" as="geometry">
            <Array as="points">
              <mxPoint x="130" y="100" />
            </Array>
          </mxGeometry>
        </mxCell>
        <mxCell id="-gEh20BVdkmrkl_HffnZ-2" value="«interface»&lt;br&gt;&lt;b&gt;Product&lt;/b&gt;" style="html=1;whiteSpace=wrap;" vertex="1" parent="1">
          <mxGeometry x="200" y="80" width="110" height="50" as="geometry" />
        </mxCell>
        <mxCell id="-gEh20BVdkmrkl_HffnZ-3" value="&lt;p style=&quot;margin:0px;margin-top:4px;text-align:center;&quot;&gt;&lt;br&gt;«class»&lt;br&gt;&lt;b&gt;DogChow&lt;/b&gt;&lt;/p&gt;" style="verticalAlign=top;align=left;overflow=fill;fontSize=12;fontFamily=Helvetica;html=1;whiteSpace=wrap;" vertex="1" parent="1">
          <mxGeometry x="60" y="140" width="140" height="60" as="geometry" />
        </mxCell>
        <mxCell id="-gEh20BVdkmrkl_HffnZ-9" style="edgeStyle=orthogonalEdgeStyle;shape=flexArrow;rounded=0;orthogonalLoop=1;jettySize=auto;html=1;entryX=0.5;entryY=1;entryDx=0;entryDy=0;" edge="1" parent="1" source="-gEh20BVdkmrkl_HffnZ-4" target="-gEh20BVdkmrkl_HffnZ-3">
          <mxGeometry relative="1" as="geometry">
            <mxPoint x="130" y="150" as="targetPoint" />
          </mxGeometry>
        </mxCell>
        <mxCell id="-gEh20BVdkmrkl_HffnZ-22" style="edgeStyle=orthogonalEdgeStyle;shape=flexArrow;rounded=0;orthogonalLoop=1;jettySize=auto;html=1;entryX=0;entryY=0.25;entryDx=0;entryDy=0;" edge="1" parent="1" source="-gEh20BVdkmrkl_HffnZ-4" target="-gEh20BVdkmrkl_HffnZ-21">
          <mxGeometry relative="1" as="geometry">
            <Array as="points">
              <mxPoint x="20" y="260" />
              <mxPoint x="20" y="33" />
            </Array>
          </mxGeometry>
        </mxCell>
        <mxCell id="-gEh20BVdkmrkl_HffnZ-4" value="&lt;p style=&quot;margin:0px;margin-top:4px;text-align:center;&quot;&gt;&lt;br&gt;«class»&lt;br&gt;&lt;b&gt;DogChowCreator&lt;/b&gt;&lt;/p&gt;" style="verticalAlign=top;align=left;overflow=fill;fontSize=12;fontFamily=Helvetica;html=1;whiteSpace=wrap;" vertex="1" parent="1">
          <mxGeometry x="60" y="230" width="140" height="60" as="geometry" />
        </mxCell>
        <mxCell id="-gEh20BVdkmrkl_HffnZ-13" style="edgeStyle=orthogonalEdgeStyle;shape=flexArrow;rounded=0;orthogonalLoop=1;jettySize=auto;html=1;entryX=0.5;entryY=1;entryDx=0;entryDy=0;" edge="1" parent="1" source="-gEh20BVdkmrkl_HffnZ-11" target="-gEh20BVdkmrkl_HffnZ-2">
          <mxGeometry relative="1" as="geometry" />
        </mxCell>
        <mxCell id="-gEh20BVdkmrkl_HffnZ-15" style="edgeStyle=orthogonalEdgeStyle;shape=flexArrow;rounded=0;orthogonalLoop=1;jettySize=auto;html=1;entryX=0;entryY=0.5;entryDx=0;entryDy=0;" edge="1" parent="1" source="-gEh20BVdkmrkl_HffnZ-11" target="-gEh20BVdkmrkl_HffnZ-14">
          <mxGeometry relative="1" as="geometry" />
        </mxCell>
        <mxCell id="-gEh20BVdkmrkl_HffnZ-11" value="&lt;p style=&quot;margin:0px;margin-top:4px;text-align:center;&quot;&gt;&lt;br&gt;«class»&lt;br&gt;&lt;b&gt;ClientProduct&lt;/b&gt;&lt;/p&gt;" style="verticalAlign=top;align=left;overflow=fill;fontSize=12;fontFamily=Helvetica;html=1;whiteSpace=wrap;" vertex="1" parent="1">
          <mxGeometry x="185" y="300" width="140" height="60" as="geometry" />
        </mxCell>
        <mxCell id="-gEh20BVdkmrkl_HffnZ-17" style="edgeStyle=orthogonalEdgeStyle;shape=flexArrow;rounded=0;orthogonalLoop=1;jettySize=auto;html=1;" edge="1" parent="1" source="-gEh20BVdkmrkl_HffnZ-14" target="-gEh20BVdkmrkl_HffnZ-18">
          <mxGeometry relative="1" as="geometry">
            <mxPoint x="580" y="300" as="targetPoint" />
          </mxGeometry>
        </mxCell>
        <mxCell id="-gEh20BVdkmrkl_HffnZ-14" value="&lt;p style=&quot;margin:0px;margin-top:4px;text-align:center;&quot;&gt;&lt;br&gt;«class»&lt;br&gt;&lt;b&gt;Main&lt;/b&gt;&lt;/p&gt;" style="verticalAlign=top;align=left;overflow=fill;fontSize=12;fontFamily=Helvetica;html=1;whiteSpace=wrap;" vertex="1" parent="1">
          <mxGeometry x="380" y="300" width="140" height="60" as="geometry" />
        </mxCell>
        <mxCell id="-gEh20BVdkmrkl_HffnZ-18" value="Cliente" style="shape=umlActor;verticalLabelPosition=bottom;verticalAlign=top;html=1;" vertex="1" parent="1">
          <mxGeometry x="565" y="270" width="30" height="60" as="geometry" />
        </mxCell>
        <mxCell id="-gEh20BVdkmrkl_HffnZ-21" value="«class»&lt;br&gt;&lt;b&gt;Creator&lt;/b&gt;" style="html=1;whiteSpace=wrap;" vertex="1" parent="1">
          <mxGeometry x="200" y="20" width="110" height="50" as="geometry" />
        </mxCell>
      </root>
    </mxGraphModel>
  </diagram>
</mxfile>
